Coordinates
version=1
nRows=42
nColumns=11
inDegrees=yes

Units are S.I. units (second, meters, Newtons, ...)
If the header above contains a line with 'inDegrees', this indicates whether rotational values are in degrees (yes) or radians (no).

endheader
time	pelvis_tilt	pelvis_tx	pelvis_ty	hip_flexion_l	hip_flexion_r	knee_angle_l	knee_angle_r	ankle_angle_l	ankle_angle_r	lumbar_extension
      1.62000000	      6.10110184	     -1.21781694	      0.90360895	     23.32390940	    -14.03022454	    -28.17449420	    -18.64617069	      0.89859501	      9.52635479	    -11.31911793
      1.63000000	      6.15532866	     -1.20605679	      0.90168878	     22.33088044	    -14.31397482	    -26.67608486	    -19.73126323	     -0.22594803	      9.45479756	    -10.99163865
      1.64000000	      6.21688953	     -1.19401499	      0.89960929	     21.31973484	    -14.66161723	    -25.52030504	    -20.78550280	     -1.25587799	      9.35497261	    -10.64875624
      1.65000000	      6.23466995	     -1.18182685	      0.89719852	     20.37242960	    -14.92351824	    -24.86327112	    -21.92048630	     -1.36285265	      9.28408392	    -10.25211500
      1.66000000	      6.27997948	     -1.16956892	      0.89481342	     19.34544562	    -15.18973420	    -24.70894759	    -23.14201502	     -0.57985788	      9.01825044	     -9.89823529
      1.67000000	      6.02141937	     -1.15825131	      0.89246829	     19.01351927	    -14.85621995	    -25.49717401	    -24.69088165	      1.34059880	      8.62154151	     -9.35469092
      1.68000000	      5.75145256	     -1.14740461	      0.89027515	     19.08650858	    -14.30018263	    -26.81841920	    -26.56680555	      3.58500075	      8.09795633	     -8.88437933
      1.69000000	      5.45757459	     -1.13689176	      0.88853575	     19.66662534	    -13.54413306	    -28.26079920	    -28.64228719	      3.56209510	      7.34807621	     -8.44274343
      1.70000000	      5.22537172	     -1.12667199	      0.88735276	     20.22093307	    -12.74380258	    -29.72037203	    -30.76438763	      4.50354374	      6.04303742	     -8.11402866
      1.71000000	      5.13685251	     -1.11645865	      0.88655612	     20.41820571	    -12.06659354	    -31.19203561	    -32.83362680	      5.71995842	      4.82611704	     -7.98678620
      1.72000000	      5.08270304	     -1.10633537	      0.88602613	     20.34386055	    -11.35085055	    -32.42823830	    -34.98899693	      6.91304500	      3.35599987	     -7.92760166
      1.73000000	      5.01491567	     -1.09631222	      0.88565980	     19.99841283	    -10.52994010	    -33.01200996	    -37.29395915	      8.08872004	      1.59373298	     -7.91442816
      1.74000000	      4.77809551	     -1.08654995	      0.88537824	     19.70274871	     -9.36801417	    -33.35460102	    -39.73814475	      8.97768998	     -0.35869469	     -7.77942595
      1.75000000	      4.49732718	     -1.07689906	      0.88538889	     19.24135462	     -8.09322485	    -33.30671713	    -42.06242632	      9.78300274	     -2.58705022	     -7.63467558
      1.76000000	      4.02557233	     -1.06778332	      0.88533261	     18.94794915	     -6.32320165	    -33.11726808	    -44.63783575	     10.50841640	     -5.09498820	     -7.36093785
      1.77000000	      3.54184069	     -1.05887470	      0.88559460	     18.54688644	     -4.46275048	    -32.65989862	    -47.11257490	     10.96917272	     -7.98948877	     -7.13113165
      1.78000000	      3.07732281	     -1.05025422	      0.88602178	     18.13107684	     -2.46828318	    -32.16703863	    -49.71227112	     11.41566771	    -10.71887390	     -6.96290550
      1.79000000	      2.73180079	     -1.04208259	      0.88665714	     17.67177190	     -0.44535676	    -31.77769589	    -52.28140422	     11.88824766	    -14.09574972	     -7.03467399
      1.80000000	      2.55443309	     -1.03395218	      0.88759361	     17.02360067	      1.52034489	    -31.36293659	    -54.80485411	     12.31319373	    -17.15314895	     -7.31518275
      1.81000000	      2.34985574	     -1.02639864	      0.88854073	     16.43321434	      3.64647216	    -30.91111989	    -57.38432834	     12.70032604	    -19.40209841	     -7.65505114
      1.82000000	      2.40088694	     -1.01872025	      0.88996631	     15.47800491	      5.49921460	    -30.31537504	    -59.77338862	     13.01338551	    -20.74987992	     -8.30737911
      1.83000000	      2.41316492	     -1.01106429	      0.89139479	     14.50424615	      7.40452007	    -29.59387054	    -62.09293939	     13.21018494	    -20.42399549	     -8.92071189
      1.84000000	      2.26768527	     -1.00365551	      0.89266759	     13.73085542	      9.51463465	    -28.89017462	    -64.09118285	     13.40326553	    -19.17090994	     -9.37869325
      1.85000000	      2.05342394	     -0.99658226	      0.89380922	     13.06536418	     11.75879510	    -28.19526357	    -65.95559507	     13.52474532	    -17.41694609	     -9.78997158
      1.86000000	      1.90773489	     -0.98926086	      0.89511974	     12.22742339	     13.88843978	    -27.34494199	    -67.50687426	     13.50921615	    -15.69112972	    -10.24337182
      1.87000000	      1.81187267	     -0.98198274	      0.89649083	     11.31735550	     16.00859754	    -26.44359674	    -68.83253226	     13.54483348	    -13.95905813	    -10.72748032
      1.88000000	      1.78087227	     -0.97457779	      0.89791222	     10.32373920	     18.10295184	    -25.54830099	    -70.05284752	     13.57673443	    -11.91184588	    -11.23006610
      1.89000000	      1.67650596	     -0.96737978	      0.89918144	      9.41945852	     20.31729508	    -24.62500410	    -71.05343757	     13.53977513	     -9.68077311	    -11.67343784
      1.90000000	      1.72879906	     -0.95986227	      0.90075496	      8.29467604	     22.23390558	    -23.63960846	    -71.67741798	     13.60956405	     -7.19499147	    -12.26664997
      1.91000000	      1.60186047	     -0.95262801	      0.90205618	      7.45148741	     24.34053359	    -22.79975663	    -71.88609207	     13.49211409	     -4.95432187	    -12.66262863
      1.92000000	      1.53177546	     -0.94515976	      0.90333892	      6.49601076	     26.28485680	    -21.84754599	    -71.60530089	     13.33868812	     -3.37373608	    -13.09097291
      1.93000000	      1.44081922	     -0.93761756	      0.90464886	      5.54163856	     28.11651654	    -20.89197315	    -70.94096329	     13.22733032	     -1.79607651	    -13.48832272
      1.94000000	      1.23579509	     -0.93002617	      0.90565044	      4.73614643	     29.93617873	    -19.97741881	    -69.71163173	     13.08756701	     -1.03446831	    -13.72590210
      1.95000000	      0.99878880	     -0.92235624	      0.90644662	      3.99059244	     31.62924429	    -19.12309125	    -68.14326078	     12.97192319	     -0.27340553	    -13.90287457
      1.96000000	      0.77283876	     -0.91458424	      0.90708675	      3.14023239	     33.11779541	    -18.05662390	    -66.13059233	     12.74298239	      0.35115760	    -14.08596786
      1.97000000	      0.61451841	     -0.90664063	      0.90768352	      2.27404626	     34.33384085	    -17.19340828	    -63.65975241	     12.70219140	      0.63534470	    -14.31821396
      1.98000000	      0.43151305	     -0.89860988	      0.90802216	      1.42061430	     35.35853029	    -16.30494989	    -60.80266110	     12.70114102	      0.90527108	    -14.51240969
      1.99000000	      0.41884730	     -0.89031613	      0.90829314	      0.46339181	     35.98037965	    -15.58069054	    -57.57462705	     12.74240257	      1.20121165	    -14.87144461
      2.00000000	      0.39822487	     -0.88172091	      0.90814799	     -0.54545881	     36.40799227	    -14.77980330	    -54.10864149	     12.71097492	      1.76240445	    -15.15704638
      2.01000000	      0.54748816	     -0.87274546	      0.90780057	     -1.65606571	     36.48332791	    -14.19398309	    -50.57067087	     12.80197738	      2.23524063	    -15.57086177
      2.02000000	      0.89347038	     -0.86329909	      0.90759963	     -3.16092579	     36.12306248	    -13.34712967	    -46.78226392	     12.87807362	      2.50752294	    -16.12785772
      2.03000000	      1.25662571	     -0.85349501	      0.90693791	     -4.60718088	     35.65585230	    -12.69528106	    -43.14135084	     13.04990444	      2.70551885	    -16.66733790
